<?xml version="1.0" encoding="UTF-8" standalone="no"?>
<!-- Created with Inkscape (http://www.inkscape.org/) -->

<svg
   width="512"
   height="512"
   viewBox="0 0 135.46667 135.46667"
   version="1.1"
   id="svg1"
   xmlns="http://www.w3.org/2000/svg"
   xmlns:svg="http://www.w3.org/2000/svg">
  <defs
     id="defs1">
    <clipPath
       clipPathUnits="userSpaceOnUse"
       id="clipPath13">
      <rect
         style="fill:#000000;fill-opacity:1;fill-rule:evenodd;stroke:none;stroke-width:8.46667;stroke-dasharray:none;stroke-opacity:1"
         id="rect14"
         width="31.919531"
         height="107.18243"
         x="14.83543"
         y="15.215023"
         ry="0" />
    </clipPath>
    <clipPath
       clipPathUnits="userSpaceOnUse"
       id="clipPath15">
      <rect
         style="fill:#000000;fill-opacity:1;fill-rule:evenodd;stroke:none;stroke-width:6.90634;stroke-dasharray:none;stroke-opacity:1"
         id="rect15"
         width="21.238745"
         height="107.18243"
         x="80.620972"
         y="10.920547"
         ry="0"
         d="M 80.620972,10.920547 H 101.85972 V 118.10297 H 80.620972 Z" />
    </clipPath>
  </defs>
  <g
     id="layer1">
    <path
       style="fill:none;fill-rule:evenodd;stroke:#000000;stroke-width:8.46667;stroke-dasharray:none;stroke-opacity:1"
       id="rect8"
       width="67.733002"
       height="67.73333"
       x="29.82147"
       y="34.035374"
       ry="16.933332"
       d="M 46.754803,34.035374 H 80.62114 c 9.381066,0 16.933332,7.552266 16.933332,16.933332 v 33.866665 c 0,9.381066 -7.552266,16.933329 -16.933332,16.933329 H 46.754803 c -9.381066,0 -16.933333,-7.552263 -16.933333,-16.933329 V 50.968706 c 0,-9.381066 7.552267,-16.933332 16.933333,-16.933332 z"
       transform="translate(-80.620973,-0.16870524)"
       clip-path="url(#clipPath15)" />
    <path
       transform="translate(8.3506069,-0.16870524)"
       style="fill:none;fill-rule:evenodd;stroke:#000000;stroke-width:8.46667;stroke-dasharray:none;stroke-opacity:1"
       clip-path="none"
       id="path11"
       d="M 46.754803,34.035374 H 80.62114 c 9.381066,0 16.933332,7.552266 16.933332,16.933332 v 33.866665 c 0,9.381066 -7.552266,16.933329 -16.933332,16.933329 H 46.754803 c -9.381066,0 -16.933333,-7.552263 -16.933333,-16.933329 V 50.968706 c 0,-9.381066 7.552267,-16.933332 16.933333,-16.933332 z" />
    <path
       transform="translate(97.322187,-0.16870524)"
       style="fill:none;fill-rule:evenodd;stroke:#000000;stroke-width:8.46667;stroke-dasharray:none;stroke-opacity:1"
       clip-path="url(#clipPath13)"
       id="path12"
       d="M 46.754803,34.035374 H 80.62114 c 9.381066,0 16.933332,7.552266 16.933332,16.933332 v 33.866665 c 0,9.381066 -7.552266,16.933329 -16.933332,16.933329 H 46.754803 c -9.381066,0 -16.933333,-7.552263 -16.933333,-16.933329 V 50.968706 c 0,-9.381066 7.552267,-16.933332 16.933333,-16.933332 z" />
  </g>
</svg>
