<?xml version="1.0" encoding="UTF-8" standalone="no"?>
<!-- Created with Inkscape (http://www.inkscape.org/) -->

<svg
   width="189.86224mm"
   height="233.18071mm"
   viewBox="0 0 189.86224 233.18071"
   version="1.1"
   id="svg1"
   xml:space="preserve"
   xmlns="http://www.w3.org/2000/svg"
   xmlns:svg="http://www.w3.org/2000/svg"><defs
     id="defs1"><clipPath
       clipPathUnits="userSpaceOnUse"
       id="clipPath34"><rect
         style="fill:#373737;fill-opacity:1;fill-rule:evenodd;stroke:#000000;stroke-width:1;stroke-linecap:round;stroke-dasharray:none;stroke-opacity:1"
         id="rect35"
         width="28.654648"
         height="22.980461"
         x="91.414223"
         y="69.597298"
         d="M 91.414223,69.597298 H 120.06887 V 92.577759 H 91.414223 Z" /></clipPath><clipPath
       clipPathUnits="userSpaceOnUse"
       id="clipPath34-6"><rect
         style="fill:#373737;fill-opacity:1;fill-rule:evenodd;stroke:#000000;stroke-width:1;stroke-linecap:round;stroke-dasharray:none;stroke-opacity:1"
         id="rect35-0"
         width="28.654648"
         height="22.980461"
         x="91.414223"
         y="69.597298"
         d="M 91.414223,69.597298 H 120.06887 V 92.577759 H 91.414223 Z" /></clipPath></defs><g
     id="layer1"
     transform="translate(-13.3374,-40.88591)"><path
       style="fill:#373737;fill-opacity:1;fill-rule:evenodd;stroke:#000000;stroke-width:1;stroke-linecap:round;stroke-dasharray:none;stroke-opacity:1"
       d="m 13.837445,184.44353 3.678837,-9.90778 3.177178,-5.56006 4.013277,-3.13537 12.752423,-7.12299 8.079428,-2.00316 6.209805,-1.73608 10.950628,-7.21139 4.340188,-2.27025 4.340188,-3.20506 3.294266,-4.00222 67.719987,11.72769 4.88223,2.48627 2.57214,1.99134 11.45018,4.23159 11.86504,6.8867 6.38887,6.55481 5.49959,7.93507 5.59459,16.56859 1.72141,9.46776 4.5187,16.13823 0.64553,6.67046 1.29106,6.02494 3.87317,5.16424 -0.69486,33.42976 H 13.882559 Z"
       id="path34" /><path
       style="fill:#ffffff;fill-opacity:1;fill-rule:evenodd;stroke:#000000;stroke-width:1;stroke-linecap:round;stroke-dasharray:none;stroke-opacity:1"
       d="m 77.524064,132.7255 -1.773574,0.51087 -0.745495,2.94056 -0.33133,2.11224 11.489836,9.60245 7.612068,7.3562 9.403141,9.46711 7.1643,8.05984 14.3286,16.56744 4.66959,-15.86381 3.28669,-7.71734 5.37255,-7.84168 2.72033,-14.3423 -34.65654,-15.80491 z"
       id="path33" /><rect
       style="fill:#ddc19f;fill-opacity:1;fill-rule:evenodd;stroke:none;stroke-width:1;stroke-dasharray:none;stroke-opacity:1"
       id="rect29"
       width="58.043999"
       height="13.854041"
       x="81.943146"
       y="103.53885" /><path
       style="display:inline;fill:#ddc19f;fill-opacity:1;fill-rule:evenodd;stroke:#000000;stroke-width:1;stroke-dasharray:none;stroke-opacity:1"
       d="m 85.297583,106.62198 c -6e-6,0 -12.336103,-9.197974 -3.640751,-14.354962 1.595205,-0.946075 0.154875,-3.741586 -0.209995,-5.559994 -0.135644,-0.676012 -0.496766,-1.286616 -0.725366,-1.937103 -0.513045,-1.459882 -1.096845,-2.903416 -1.449699,-4.410056 -0.64595,-2.758116 -1.310426,-5.581235 -1.206979,-8.412092 0.204267,-5.58983 1.033542,-11.416786 3.589319,-16.39232 0.61141,-1.19028 1.606443,-2.193437 2.687481,-2.982073 1.664865,-1.214547 3.697398,-1.842628 5.636953,-2.539066 3.348744,-1.202436 6.771525,-2.336304 10.298124,-2.808579 2.64626,-0.354382 5.37128,-0.408968 8.00965,0 3.0559,0.473687 6.10861,1.362046 8.84182,2.808579 2.72822,1.443894 4.97247,3.672667 7.2815,5.721178 1.98079,1.757307 3.99459,3.524571 5.61716,5.617159 1.62882,2.100646 2.98888,4.431237 4.05684,6.865414 0.77125,1.757881 1.2742,3.633573 1.66434,5.513136 0.42569,2.050825 -0.10839,4.321056 0.72815,6.241288 0.49118,1.127474 1.93888,1.66547 2.39249,2.808578 0.51221,1.290772 0.16359,2.772885 0.20805,4.160859 0.0788,2.460822 0.0122,4.92515 0.10402,7.385521 0.0428,1.145538 -0.0427,2.314133 0.20804,3.432709 0.24506,1.093216 0.8907,2.058889 1.24826,3.120644 0.33291,0.98855 0.69221,1.98295 0.83217,3.01662 0.12562,0.92773 0,2.80858 0,2.80858"
       id="path4" /><path
       style="fill:#ddc19f;fill-opacity:1;fill-rule:evenodd;stroke:#000000;stroke-width:1;stroke-dasharray:none;stroke-opacity:1"
       d="m 77.565495,105.39609 c -0.76867,-2.18391 -1.033913,-4.58567 -2.190821,-6.591128 -1.283621,-2.22511 -3.5611,-3.718818 -5.113819,-5.765245 -0.489292,-0.644869 -0.53703,-1.819935 -1.315699,-2.041152 -1.121746,-0.318684 -2.393049,0.624789 -3.15826,1.504747 -1.284051,1.476602 -1.76875,3.64207 -1.764866,5.598885 0.0041,2.065763 1.169213,3.965963 1.88658,5.903173 0.940729,2.54039 1.533359,5.32269 3.164588,7.48547 1.051151,1.39368 2.469414,2.60697 4.077449,3.2863 0.878905,0.3713 1.94462,0.67144 2.8414,0.34567 1.190455,-0.43245 2.140737,-1.59163 2.597957,-2.77279 0.525299,-1.35703 0.205811,-2.93472 -0.06197,-4.36503 -0.169426,-0.90496 -0.656868,-1.72044 -0.962539,-2.5889 z"
       id="path29" /><path
       style="fill:#ddc19f;fill-opacity:1;fill-rule:evenodd;stroke:#000000;stroke-width:1;stroke-linecap:round;stroke-dasharray:none;stroke-opacity:1"
       d="m 77.832261,126.3183 -0.308197,6.4072 -0.134474,2.01711 1.748157,1.34473 5.71513,3.63079 8.606316,3.69803 2.420525,0.13447 4.235922,-3.89974 -1.748159,-6.45473 -6.051314,-6.72369 -9.211445,-5.44618 -5.177237,1.68092 z"
       id="path32" /></g><path
     style="fill:#ffffff;fill-opacity:1;fill-rule:evenodd;stroke:#000000;stroke-width:1;stroke-dasharray:none;stroke-opacity:1"
     d="m 117.44426,86.317928 0.1441,-0.576414 c 0,0 0.0517,0.606375 -0.1441,0.576414 -0.80858,-0.123747 0.2623,-1.640346 0.1441,-2.449759 -0.0812,-0.556328 -0.47886,-1.031436 -0.57641,-1.585137 -0.0667,-0.378448 0.0883,-0.778832 0,-1.152827 -0.0247,-0.104536 -0.11943,-0.183672 -0.14411,-0.288208 -0.15451,-0.654491 0.1545,-1.362953 0,-2.017445 -0.12339,-0.522675 -0.59712,-0.91836 -0.72051,-1.441035 -0.0221,-0.0935 0.0394,-0.20057 0,-0.288208 -0.23695,-0.52765 -0.88793,-0.743828 -1.29693,-1.152826 -0.409,-0.408999 -0.82856,-0.817966 -1.15283,-1.29693 -0.18065,-0.266824 -0.20446,-0.636774 -0.43231,-0.864621 -0.0759,-0.07595 -0.21226,-0.06815 -0.28821,-0.144102 -0.1519,-0.151898 -0.14224,-0.418798 -0.2882,-0.576414 -0.57091,-0.616522 -1.4799,-0.805622 -2.16156,-1.296932 -0.35926,-0.258941 -0.62009,-0.652286 -1.00872,-0.864618 -0.44009,-0.240447 -0.96292,-0.280949 -1.44103,-0.432311 -0.57926,-0.183386 -1.12489,-0.513677 -1.72924,-0.576413 -1.25046,-0.129807 -2.50695,0.223617 -3.74669,0.43231 -0.43671,0.07351 -0.94787,0.01566 -1.29693,0.288206 -0.0847,0.0661 -0.0527,0.23174 -0.1441,0.288208 -0.12258,0.07576 -0.29115,-0.02897 -0.43231,0 -0.7167,0.147107 -1.430814,0.427407 -2.017452,0.864618 -0.300809,0.224188 -0.426422,0.631696 -0.720516,0.864622 -0.0842,0.06669 -0.219613,0.06145 -0.288208,0.144102 -0.223329,0.269094 -0.132677,0.695518 -0.288206,1.008724 -0.106818,0.215111 -0.320844,0.363674 -0.43231,0.576413 -0.211491,0.403646 -0.334554,0.851846 -0.432311,1.296932 -0.09331,0.424844 -0.03322,0.876331 -0.144103,1.29693 -0.09326,0.353733 -0.358756,0.650375 -0.43231,1.008724 -0.07726,0.376428 0.0066,0.768608 0,1.152826 -0.02402,1.393621 -0.440911,2.81714 -0.144103,4.178999 0.02287,0.104945 0.119426,0.183673 0.144103,0.288208 0.209684,0.888241 -0.09615,1.830388 0,2.737964 0.07246,0.683921 0.359855,1.333526 0.43231,2.017447 0.05061,0.477671 -0.0413,0.962467 0,1.441032 0.09643,1.117223 0.479988,2.197157 0.576414,3.31438 0.01239,0.143569 -0.01189,0.288696 0,0.432308 0.0241,0.291187 0.07697,0.580255 0.144102,0.864621 0.300212,1.271724 0.645279,2.54261 1.152827,3.746688 0.233782,0.554611 0.624407,1.033281 0.864621,1.585137 0.181874,0.417829 0.232101,0.887569 0.432311,1.296929 0.07609,0.15558 0.212114,0.27673 0.288205,0.43231 0.200206,0.40936 0.232096,0.88757 0.432306,1.29693 0.0761,0.15558 0.21212,0.27673 0.28821,0.43231 0.13347,0.2729 0.14722,0.59552 0.28821,0.86462 0.22293,0.42548 0.64169,0.72735 0.86462,1.15283 0.0705,0.13455 0.0564,0.30831 0.1441,0.43231 0.31632,0.44709 0.88635,0.64627 1.29693,1.00872 0.20371,0.17983 0.33996,0.44254 0.57642,0.57642 0.17234,0.0976 0.39066,0.0754 0.57641,0.1441 0.20147,0.0745 0.3691,0.23192 0.57641,0.28821 0.69689,0.18921 1.50397,-0.15429 2.16155,0.1441 0.0619,0.0281 0.0807,0.11977 0.14411,0.14411 0.85325,0.32742 1.85432,0.0892 2.73796,-0.14411 0.31155,-0.0823 0.56241,-0.32052 0.86462,-0.43231 0.18575,-0.0687 0.40046,-0.0532 0.57642,-0.1441 0.39346,-0.20324 0.68379,-0.56372 1.00872,-0.86462 0.84732,-0.78465 1.84263,-1.4674 2.44976,-2.44976 0.0799,-0.12921 0.0806,-0.29431 0.1441,-0.43231 0.23407,-0.50893 0.66262,-0.91855 0.86462,-1.44104 0.4416,-1.14225 0.52112,-2.394279 0.72052,-3.602578 0.18141,-1.099284 0.29873,-2.208264 0.43231,-3.31438 0.0521,-0.431833 0.12005,-0.862625 0.1441,-1.296929 0.0717,-1.294945 -0.12779,-2.600171 0,-3.89079 0.0241,-0.243737 0.13214,-0.475882 0.1441,-0.720519 0.0236,-0.482163 -0.16768,-0.958869 -0.1441,-1.441032 0.0239,-0.489273 0.31124,-0.951718 0.28821,-1.441034 -0.0236,-0.50094 -0.3522,-0.94598 -0.43231,-1.441035 -0.261,-1.612896 -0.14411,-4.899514 -0.14411,-4.899514"
     id="path13-2"
     transform="translate(1.6493505,-42.90336)" /><path
     style="fill:#ffffff;fill-opacity:1;fill-rule:evenodd;stroke:#000000;stroke-width:1;stroke-dasharray:none;stroke-opacity:1"
     d="m 117.44426,86.317928 0.1441,-0.576414 c 0,0 0.0517,0.606375 -0.1441,0.576414 -0.80858,-0.123747 0.2623,-1.640346 0.1441,-2.449759 -0.0812,-0.556328 -0.47886,-1.031436 -0.57641,-1.585137 -0.0667,-0.378448 0.0883,-0.778832 0,-1.152827 -0.0247,-0.104536 -0.11943,-0.183672 -0.14411,-0.288208 -0.15451,-0.654491 0.1545,-1.362953 0,-2.017445 -0.12339,-0.522675 -0.59712,-0.91836 -0.72051,-1.441035 -0.0221,-0.0935 0.0394,-0.20057 0,-0.288208 -0.23695,-0.52765 -0.88793,-0.743828 -1.29693,-1.152826 -0.409,-0.408999 -0.82856,-0.817966 -1.15283,-1.29693 -0.18065,-0.266824 -0.20446,-0.636774 -0.43231,-0.864621 -0.0759,-0.07595 -0.21226,-0.06815 -0.28821,-0.144102 -0.1519,-0.151898 -0.14224,-0.418798 -0.2882,-0.576414 -0.57091,-0.616522 -1.4799,-0.805622 -2.16156,-1.296932 -0.35926,-0.258941 -0.62009,-0.652286 -1.00872,-0.864618 -0.44009,-0.240447 -0.96292,-0.280949 -1.44103,-0.432311 -0.57926,-0.183386 -1.12489,-0.513677 -1.72924,-0.576413 -1.25046,-0.129807 -2.50695,0.223617 -3.74669,0.43231 -0.43671,0.07351 -0.94787,0.01566 -1.29693,0.288206 -0.0847,0.0661 -0.0527,0.23174 -0.1441,0.288208 -0.12258,0.07576 -0.29115,-0.02897 -0.43231,0 -0.7167,0.147107 -1.430814,0.427407 -2.017452,0.864618 -0.300809,0.224188 -0.426422,0.631696 -0.720516,0.864622 -0.0842,0.06669 -0.219613,0.06145 -0.288208,0.144102 -0.223329,0.269094 -0.132677,0.695518 -0.288206,1.008724 -0.106818,0.215111 -0.320844,0.363674 -0.43231,0.576413 -0.211491,0.403646 -0.334554,0.851846 -0.432311,1.296932 -0.09331,0.424844 -0.03322,0.876331 -0.144103,1.29693 -0.09326,0.353733 -0.358756,0.650375 -0.43231,1.008724 -0.07726,0.376428 0.0066,0.768608 0,1.152826 -0.02402,1.393621 -0.440911,2.81714 -0.144103,4.178999 0.02287,0.104945 0.119426,0.183673 0.144103,0.288208 0.209684,0.888241 -0.09615,1.830388 0,2.737964 0.07246,0.683921 0.359855,1.333526 0.43231,2.017447 0.05061,0.477671 -0.0413,0.962467 0,1.441032 0.09643,1.117223 0.479988,2.197157 0.576414,3.31438 0.01239,0.143569 -0.01189,0.288696 0,0.432308 0.0241,0.291187 0.07697,0.580255 0.144102,0.864621 0.300212,1.271724 0.645279,2.54261 1.152827,3.746688 0.233782,0.554611 0.624407,1.033281 0.864621,1.585137 0.181874,0.417829 0.232101,0.887569 0.432311,1.296929 0.07609,0.15558 0.212114,0.27673 0.288205,0.43231 0.200206,0.40936 0.232096,0.88757 0.432306,1.29693 0.0761,0.15558 0.21212,0.27673 0.28821,0.43231 0.13347,0.2729 0.14722,0.59552 0.28821,0.86462 0.22293,0.42548 0.64169,0.72735 0.86462,1.15283 0.0705,0.13455 0.0564,0.30831 0.1441,0.43231 0.31632,0.44709 0.88635,0.64627 1.29693,1.00872 0.20371,0.17983 0.33996,0.44254 0.57642,0.57642 0.17234,0.0976 0.39066,0.0754 0.57641,0.1441 0.20147,0.0745 0.3691,0.23192 0.57641,0.28821 0.69689,0.18921 1.50397,-0.15429 2.16155,0.1441 0.0619,0.0281 0.0807,0.11977 0.14411,0.14411 0.85325,0.32742 1.85432,0.0892 2.73796,-0.14411 0.31155,-0.0823 0.56241,-0.32052 0.86462,-0.43231 0.18575,-0.0687 0.40046,-0.0532 0.57642,-0.1441 0.39346,-0.20324 0.68379,-0.56372 1.00872,-0.86462 0.84732,-0.78465 1.84263,-1.4674 2.44976,-2.44976 0.0799,-0.12921 0.0806,-0.29431 0.1441,-0.43231 0.23407,-0.50893 0.66262,-0.91855 0.86462,-1.44104 0.4416,-1.14225 0.52112,-2.394279 0.72052,-3.602578 0.18141,-1.099284 0.29873,-2.208264 0.43231,-3.31438 0.0521,-0.431833 0.12005,-0.862625 0.1441,-1.296929 0.0717,-1.294945 -0.12779,-2.600171 0,-3.89079 0.0241,-0.243737 0.13214,-0.475882 0.1441,-0.720519 0.0236,-0.482163 -0.16768,-0.958869 -0.1441,-1.441032 0.0239,-0.489273 0.31124,-0.951718 0.28821,-1.441034 -0.0236,-0.50094 -0.3522,-0.94598 -0.43231,-1.441035 -0.261,-1.612896 -0.14411,-4.899514 -0.14411,-4.899514"
     id="path13"
     transform="translate(-13.3374,-40.88591)" /><path
     style="fill:#ddc19f;fill-opacity:1;fill-rule:evenodd;stroke:#000000;stroke-width:1;stroke-dasharray:none;stroke-opacity:1"
     d="m 117.44426,86.317928 0.1441,-0.576414 c 0,0 0.0517,0.606375 -0.1441,0.576414 -0.80858,-0.123747 0.2623,-1.640346 0.1441,-2.449759 -0.0812,-0.556328 -0.47886,-1.031436 -0.57641,-1.585137 -0.0667,-0.378448 0.0883,-0.778832 0,-1.152827 -0.0247,-0.104536 -0.11943,-0.183672 -0.14411,-0.288208 -0.15451,-0.654491 0.1545,-1.362953 0,-2.017445 -0.12339,-0.522675 -0.59712,-0.91836 -0.72051,-1.441035 -0.0221,-0.0935 0.0394,-0.20057 0,-0.288208 -0.23695,-0.52765 -0.88793,-0.743828 -1.29693,-1.152826 -0.409,-0.408999 -0.82856,-0.817966 -1.15283,-1.29693 -0.18065,-0.266824 -0.20446,-0.636774 -0.43231,-0.864621 -0.0759,-0.07595 -0.21226,-0.06815 -0.28821,-0.144102 -0.1519,-0.151898 -0.14224,-0.418798 -0.2882,-0.576414 -0.57091,-0.616522 -1.4799,-0.805622 -2.16156,-1.296932 -0.35926,-0.258941 -0.62009,-0.652286 -1.00872,-0.864618 -0.44009,-0.240447 -0.96292,-0.280949 -1.44103,-0.432311 -0.57926,-0.183386 -1.12489,-0.513677 -1.72924,-0.576413 -1.25046,-0.129807 -2.50695,0.223617 -3.74669,0.43231 -0.43671,0.07351 -0.94787,0.01566 -1.29693,0.288206 -0.0847,0.0661 -0.0527,0.23174 -0.1441,0.288208 -0.12258,0.07576 -0.29115,-0.02897 -0.43231,0 -0.7167,0.147107 -1.430814,0.427407 -2.017452,0.864618 -0.300809,0.224188 -0.426422,0.631696 -0.720516,0.864622 -0.0842,0.06669 -0.219613,0.06145 -0.288208,0.144102 -0.223329,0.269094 -0.132677,0.695518 -0.288206,1.008724 -0.106818,0.215111 -0.320844,0.363674 -0.43231,0.576413 -0.211491,0.403646 -0.334554,0.851846 -0.432311,1.296932 -0.09331,0.424844 -0.03322,0.876331 -0.144103,1.29693 -0.09326,0.353733 -0.358756,0.650375 -0.43231,1.008724 -0.07726,0.376428 0.0066,0.768608 0,1.152826 -0.02402,1.393621 -0.440911,2.81714 -0.144103,4.178999 0.02287,0.104945 0.119426,0.183673 0.144103,0.288208 0.209684,0.888241 -0.09615,1.830388 0,2.737964 0.07246,0.683921 0.359855,1.333526 0.43231,2.017447 0.05061,0.477671 -0.0413,0.962467 0,1.441032 0.09643,1.117223 0.479988,2.197157 0.576414,3.31438 0.01239,0.143569 -0.01189,0.288696 0,0.432308 0.0241,0.291187 0.07697,0.580255 0.144102,0.864621 0.300212,1.271724 0.645279,2.54261 1.152827,3.746688 0.233782,0.554611 0.624407,1.033281 0.864621,1.585137 0.181874,0.417829 0.232101,0.887569 0.432311,1.296929 0.07609,0.15558 0.212114,0.27673 0.288205,0.43231 0.200206,0.40936 0.232096,0.88757 0.432306,1.29693 0.0761,0.15558 0.21212,0.27673 0.28821,0.43231 0.13347,0.2729 0.14722,0.59552 0.28821,0.86462 0.22293,0.42548 0.64169,0.72735 0.86462,1.15283 0.0705,0.13455 0.0564,0.30831 0.1441,0.43231 0.31632,0.44709 0.88635,0.64627 1.29693,1.00872 0.20371,0.17983 0.33996,0.44254 0.57642,0.57642 0.17234,0.0976 0.39066,0.0754 0.57641,0.1441 0.20147,0.0745 0.3691,0.23192 0.57641,0.28821 0.69689,0.18921 1.50397,-0.15429 2.16155,0.1441 0.0619,0.0281 0.0807,0.11977 0.14411,0.14411 0.85325,0.32742 1.85432,0.0892 2.73796,-0.14411 0.31155,-0.0823 0.56241,-0.32052 0.86462,-0.43231 0.18575,-0.0687 0.40046,-0.0532 0.57642,-0.1441 0.39346,-0.20324 0.68379,-0.56372 1.00872,-0.86462 0.84732,-0.78465 1.84263,-1.4674 2.44976,-2.44976 0.0799,-0.12921 0.0806,-0.29431 0.1441,-0.43231 0.23407,-0.50893 0.66262,-0.91855 0.86462,-1.44104 0.4416,-1.14225 0.52112,-2.394279 0.72052,-3.602578 0.18141,-1.099284 0.29873,-2.208264 0.43231,-3.31438 0.0521,-0.431833 0.12005,-0.862625 0.1441,-1.296929 0.0717,-1.294945 -0.12779,-2.600171 0,-3.89079 0.0241,-0.243737 0.13214,-0.475882 0.1441,-0.720519 0.0236,-0.482163 -0.16768,-0.958869 -0.1441,-1.441032 0.0239,-0.489273 0.31124,-0.951718 0.28821,-1.441034 -0.0236,-0.50094 -0.3522,-0.94598 -0.43231,-1.441035 -0.261,-1.612896 -0.14411,-4.899514 -0.14411,-4.899514"
     id="path13-0-6"
     transform="translate(1.6493505,-42.90336)"
     clip-path="url(#clipPath34-6)" /><path
     style="fill:#ddc19f;fill-opacity:1;fill-rule:evenodd;stroke:#000000;stroke-width:1;stroke-linecap:round;stroke-dasharray:none;stroke-opacity:1"
     d="M 98.359053,49.918752 H 118.54862"
     id="path35-9" /><path
     style="fill:#ddc19f;fill-opacity:1;fill-rule:evenodd;stroke:#000000;stroke-width:1;stroke-dasharray:none;stroke-opacity:1"
     d="m 117.44426,86.317928 0.1441,-0.576414 c 0,0 0.0517,0.606375 -0.1441,0.576414 -0.80858,-0.123747 0.2623,-1.640346 0.1441,-2.449759 -0.0812,-0.556328 -0.47886,-1.031436 -0.57641,-1.585137 -0.0667,-0.378448 0.0883,-0.778832 0,-1.152827 -0.0247,-0.104536 -0.11943,-0.183672 -0.14411,-0.288208 -0.15451,-0.654491 0.1545,-1.362953 0,-2.017445 -0.12339,-0.522675 -0.59712,-0.91836 -0.72051,-1.441035 -0.0221,-0.0935 0.0394,-0.20057 0,-0.288208 -0.23695,-0.52765 -0.88793,-0.743828 -1.29693,-1.152826 -0.409,-0.408999 -0.82856,-0.817966 -1.15283,-1.29693 -0.18065,-0.266824 -0.20446,-0.636774 -0.43231,-0.864621 -0.0759,-0.07595 -0.21226,-0.06815 -0.28821,-0.144102 -0.1519,-0.151898 -0.14224,-0.418798 -0.2882,-0.576414 -0.57091,-0.616522 -1.4799,-0.805622 -2.16156,-1.296932 -0.35926,-0.258941 -0.62009,-0.652286 -1.00872,-0.864618 -0.44009,-0.240447 -0.96292,-0.280949 -1.44103,-0.432311 -0.57926,-0.183386 -1.12489,-0.513677 -1.72924,-0.576413 -1.25046,-0.129807 -2.50695,0.223617 -3.74669,0.43231 -0.43671,0.07351 -0.94787,0.01566 -1.29693,0.288206 -0.0847,0.0661 -0.0527,0.23174 -0.1441,0.288208 -0.12258,0.07576 -0.29115,-0.02897 -0.43231,0 -0.7167,0.147107 -1.430814,0.427407 -2.017452,0.864618 -0.300809,0.224188 -0.426422,0.631696 -0.720516,0.864622 -0.0842,0.06669 -0.219613,0.06145 -0.288208,0.144102 -0.223329,0.269094 -0.132677,0.695518 -0.288206,1.008724 -0.106818,0.215111 -0.320844,0.363674 -0.43231,0.576413 -0.211491,0.403646 -0.334554,0.851846 -0.432311,1.296932 -0.09331,0.424844 -0.03322,0.876331 -0.144103,1.29693 -0.09326,0.353733 -0.358756,0.650375 -0.43231,1.008724 -0.07726,0.376428 0.0066,0.768608 0,1.152826 -0.02402,1.393621 -0.440911,2.81714 -0.144103,4.178999 0.02287,0.104945 0.119426,0.183673 0.144103,0.288208 0.209684,0.888241 -0.09615,1.830388 0,2.737964 0.07246,0.683921 0.359855,1.333526 0.43231,2.017447 0.05061,0.477671 -0.0413,0.962467 0,1.441032 0.09643,1.117223 0.479988,2.197157 0.576414,3.31438 0.01239,0.143569 -0.01189,0.288696 0,0.432308 0.0241,0.291187 0.07697,0.580255 0.144102,0.864621 0.300212,1.271724 0.645279,2.54261 1.152827,3.746688 0.233782,0.554611 0.624407,1.033281 0.864621,1.585137 0.181874,0.417829 0.232101,0.887569 0.432311,1.296929 0.07609,0.15558 0.212114,0.27673 0.288205,0.43231 0.200206,0.40936 0.232096,0.88757 0.432306,1.29693 0.0761,0.15558 0.21212,0.27673 0.28821,0.43231 0.13347,0.2729 0.14722,0.59552 0.28821,0.86462 0.22293,0.42548 0.64169,0.72735 0.86462,1.15283 0.0705,0.13455 0.0564,0.30831 0.1441,0.43231 0.31632,0.44709 0.88635,0.64627 1.29693,1.00872 0.20371,0.17983 0.33996,0.44254 0.57642,0.57642 0.17234,0.0976 0.39066,0.0754 0.57641,0.1441 0.20147,0.0745 0.3691,0.23192 0.57641,0.28821 0.69689,0.18921 1.50397,-0.15429 2.16155,0.1441 0.0619,0.0281 0.0807,0.11977 0.14411,0.14411 0.85325,0.32742 1.85432,0.0892 2.73796,-0.14411 0.31155,-0.0823 0.56241,-0.32052 0.86462,-0.43231 0.18575,-0.0687 0.40046,-0.0532 0.57642,-0.1441 0.39346,-0.20324 0.68379,-0.56372 1.00872,-0.86462 0.84732,-0.78465 1.84263,-1.4674 2.44976,-2.44976 0.0799,-0.12921 0.0806,-0.29431 0.1441,-0.43231 0.23407,-0.50893 0.66262,-0.91855 0.86462,-1.44104 0.4416,-1.14225 0.52112,-2.394279 0.72052,-3.602578 0.18141,-1.099284 0.29873,-2.208264 0.43231,-3.31438 0.0521,-0.431833 0.12005,-0.862625 0.1441,-1.296929 0.0717,-1.294945 -0.12779,-2.600171 0,-3.89079 0.0241,-0.243737 0.13214,-0.475882 0.1441,-0.720519 0.0236,-0.482163 -0.16768,-0.958869 -0.1441,-1.441032 0.0239,-0.489273 0.31124,-0.951718 0.28821,-1.441034 -0.0236,-0.50094 -0.3522,-0.94598 -0.43231,-1.441035 -0.261,-1.612896 -0.14411,-4.899514 -0.14411,-4.899514"
     id="path13-0"
     transform="translate(-13.3374,-40.88591)"
     clip-path="url(#clipPath34)" /><path
     style="fill:#ddc19f;fill-opacity:1;fill-rule:evenodd;stroke:#000000;stroke-width:1;stroke-linecap:round;stroke-dasharray:none;stroke-opacity:1"
     d="M 83.563893,51.691849 H 103.75345"
     id="path35" /><path
     style="fill:#000000;fill-opacity:1;fill-rule:evenodd;stroke:#000000;stroke-width:1;stroke-dasharray:none;stroke-opacity:1"
     d="m 107.70442,90.56267 c -0.45883,0.09109 -0.66399,0.587139 -0.82648,0.971537 -0.18971,0.448811 -0.35642,0.897785 -0.56659,1.345224 -0.22462,0.478218 -0.21741,1.0358 -0.15772,1.553655 0.0426,0.369413 0.32817,0.619785 0.58872,0.852309 0.2856,0.254876 0.54235,0.705852 0.947,0.677171 0.42065,-0.02982 0.73949,-0.353434 1.06453,-0.589711 0.37993,-0.276174 1.05539,-0.338321 1.16101,-0.825599 0.0728,-0.335812 0.006,-0.681414 0.0328,-1.023232 0.0397,-0.506221 -0.1066,-1.021706 -0.45651,-1.400167 -0.34982,-0.378371 -0.65251,-0.845436 -1.12484,-1.069149 -0.32741,-0.15508 -0.7023,-0.135671 -1.05543,-0.142207"
     id="path18"
     transform="translate(-13.590593,-35.238275)" /><path
     style="fill:#000000;fill-opacity:1;fill-rule:evenodd;stroke:#000000;stroke-width:1;stroke-dasharray:none;stroke-opacity:1"
     d="m 124.62752,89.906733 c -0.95345,0.949275 -1.64249,2.187555 -1.82109,3.523434 -0.0589,0.440655 -0.22307,1.007036 0.11493,1.339197 0.25279,0.248428 0.6483,0.139813 0.96815,0.166827 0.35283,0.0298 0.74322,0.02322 1.00694,-0.265012 0.31898,-0.348619 0.58739,-0.737133 0.90642,-1.089296 0.28088,-0.310044 0.55975,-0.67332 0.53539,-1.123394 -0.0315,-0.582044 0.11373,-1.253111 -0.29997,-1.734824 -0.36634,-0.42658 -0.8897,-0.881632 -1.46274,-0.815069 -0.17348,0.02015 -0.34101,0.08037 -0.51648,0.0856"
     id="path19"
     transform="translate(-13.990257,-35.945734)" /><path
     style="fill:#a28e77;fill-opacity:1;fill-rule:evenodd;stroke:#000000;stroke-width:1;stroke-dasharray:none;stroke-opacity:1"
     d="m 66.41208,89.727981 c 2.830801,1.458767 4.754507,8.574213 7.726557,6.451341 2.745962,-1.961383 10.143455,-3.134843 7.738572,-6.975217 -1.63003,-2.603004 -3.304247,-8.41499 -3.666136,-9.462627 -1.324249,-3.833581 -1.42749,-8.088858 -0.952626,-12.086094 0.518013,-4.360456 1.559245,-8.723466 3.334966,-12.718318 1.472853,-3.313487 5.291987,-4.137114 8.263119,-5.629181 4.961289,-2.491501 11.830408,-4.171203 16.088588,-0.93902 3.6117,2.741476 5.69447,-1.453331 9.34099,-2.50153 3.4204,-0.983202 2.11877,-4.664075 -1.18769,-3.875189 -3.43346,0.819189 -6.81617,-0.164442 -10.14745,-1.016493 -4.078253,-1.043107 -7.509022,2.161137 -11.611216,2.326764 -3.816582,0.154095 -6.706603,2.591144 -9.21716,5.131752 -2.835652,2.869595 -6.824457,4.484342 -9.167737,7.81151 -2.640617,3.74935 -5.656061,7.233924 -6.967753,11.791336 -1.697409,5.897564 -5.424024,12.401218 -2.945855,18.323123 0.601914,1.438352 1.36449,3.79855 3.370831,3.367843 z"
     id="path20"
     transform="translate(-12.276701,-40.267523)" /><path
     style="fill:#a28e77;fill-opacity:1;fill-rule:evenodd;stroke:#000000;stroke-width:1;stroke-dasharray:none;stroke-opacity:1"
     d="m 101.09882,71.59747 c -3.48374,0.77213 -6.84789,2.55975 -10.41513,2.47359 -3.74836,-0.0905 -7.400313,-1.55552 -10.805695,-3.12453 -2.869544,-1.32212 -6.043077,-2.6673 -7.917812,-5.21046 -2.072183,-2.81101 -0.06044,-8.048385 -2.912462,-10.063736 -1.714928,-1.211834 -5.013936,-1.298685 -6.288788,0.36993 -2.624409,3.435006 2.608933,8.368626 2.668071,12.691046 0.01991,1.45542 8.68e-4,3.06859 -0.781134,4.29624 -0.685709,1.07648 -2.68545,1.0148 -3.124539,2.21322 -1.017507,2.77711 0.999316,5.89542 2.213216,8.59248 2.578671,5.72932 6.483661,10.82919 10.545318,15.62269 3.710899,4.37954 8.306922,7.92488 12.498155,11.84721 3.96878,3.71416 6.99676,8.88905 11.9774,11.06607 2.03418,0.88913 4.42857,0.71984 6.63964,0.52076 4.06765,-0.36625 7.95212,-1.89645 11.84721,-3.12454 2.51412,-0.79269 5.36742,-1.08082 7.42077,-2.73397 1.88478,-1.51743 3.14519,-3.82179 3.90568,-6.11889 1.53145,-4.62586 0.96144,-9.70906 1.04151,-14.58118 0.11132,-6.77392 -0.41949,-13.54432 -0.78113,-20.3095 -0.18163,-3.3977 2.34068,-8.65156 -0.69734,-10.18381 -1.96031,-0.9887 -3.74026,2.30365 -5.55174,3.54417 -1.99805,1.36829 -3.44048,4.16376 -5.85851,4.29624 -2.60133,0.14253 -4.19793,-3.49032 -6.76983,-3.90568 -2.97431,-0.48035 -5.9114,1.17071 -8.85286,1.82265 z"
     id="path28" /><path
     style="fill:none;fill-opacity:1;fill-rule:evenodd;stroke:#000000;stroke-width:1;stroke-dasharray:none;stroke-opacity:1"
     d="m 116.08528,121.17331 c 0.88569,0.0848 1.72057,-0.26597 2.54924,-0.52115 2.42756,-0.74756 4.86578,-1.54151 7.42162,-1.73072 1.24024,-0.0918 2.48471,-0.0964 3.72768,-0.0965"
     id="path21"
     transform="translate(-13.3374,-40.88591)" /></svg>
